<mxfile host="app.diagrams.net" modified="2024-07-16T07:22:46.705Z" agent="Mozilla/5.0 (Windows NT 10.0; Win64; x64) AppleWebKit/537.36 (KHTML, like Gecko) Chrome/126.0.0.0 Safari/537.36" etag="fjxq5e9l1YVdQaL7Ko-y" version="24.6.3" type="device">
  <diagram name="Page-1" id="vNnbm6bYDmuFv4eCZ9FM">
    <mxGraphModel dx="1434" dy="772" grid="1" gridSize="10" guides="1" tooltips="1" connect="1" arrows="1" fold="1" page="1" pageScale="1" pageWidth="827" pageHeight="1169" math="0" shadow="0">
      <root>
        <mxCell id="0" />
        <mxCell id="1" parent="0" />
        <mxCell id="YEmN3JBZFu8G2gOKy_cn-45" value="" style="rounded=0;whiteSpace=wrap;html=1;fillColor=#d5e8d4;gradientColor=#97d077;strokeColor=#82b366;" parent="1" vertex="1">
          <mxGeometry x="700" y="470" width="160" height="120" as="geometry" />
        </mxCell>
        <mxCell id="YEmN3JBZFu8G2gOKy_cn-44" value="" style="rounded=0;whiteSpace=wrap;html=1;fillColor=#d5e8d4;gradientColor=#97d077;strokeColor=#82b366;" parent="1" vertex="1">
          <mxGeometry x="878.5" y="320" width="163" height="100" as="geometry" />
        </mxCell>
        <mxCell id="YEmN3JBZFu8G2gOKy_cn-43" value="" style="rounded=0;whiteSpace=wrap;html=1;fillColor=#d5e8d4;gradientColor=#97d077;strokeColor=#82b366;" parent="1" vertex="1">
          <mxGeometry x="680" y="320" width="160" height="100" as="geometry" />
        </mxCell>
        <mxCell id="YEmN3JBZFu8G2gOKy_cn-42" value="" style="rounded=0;whiteSpace=wrap;html=1;fillColor=#d5e8d4;gradientColor=#97d077;strokeColor=#82b366;" parent="1" vertex="1">
          <mxGeometry x="300" y="200" width="120" height="70" as="geometry" />
        </mxCell>
        <mxCell id="YEmN3JBZFu8G2gOKy_cn-41" value="" style="rounded=0;whiteSpace=wrap;html=1;fillColor=#d5e8d4;strokeColor=#82b366;gradientColor=#97d077;" parent="1" vertex="1">
          <mxGeometry x="250" y="200" width="460" height="90" as="geometry" />
        </mxCell>
        <mxCell id="YEmN3JBZFu8G2gOKy_cn-6" value="" style="edgeStyle=orthogonalEdgeStyle;rounded=0;orthogonalLoop=1;jettySize=auto;html=1;exitX=0.378;exitY=0.95;exitDx=0;exitDy=0;exitPerimeter=0;" parent="1" source="YEmN3JBZFu8G2gOKy_cn-1" target="YEmN3JBZFu8G2gOKy_cn-5" edge="1">
          <mxGeometry relative="1" as="geometry">
            <Array as="points">
              <mxPoint x="349" y="250" />
              <mxPoint x="420" y="250" />
              <mxPoint x="420" y="370" />
            </Array>
          </mxGeometry>
        </mxCell>
        <mxCell id="YEmN3JBZFu8G2gOKy_cn-1" value="Mail Listener&lt;div&gt;&lt;br&gt;&lt;/div&gt;" style="rounded=0;whiteSpace=wrap;html=1;fillColor=#1ba1e2;fontColor=#ffffff;strokeColor=#006EAF;" parent="1" vertex="1">
          <mxGeometry x="315" y="230" width="90" height="40" as="geometry" />
        </mxCell>
        <mxCell id="YEmN3JBZFu8G2gOKy_cn-2" value="Send Email and Add tracking Email" style="shape=umlActor;verticalLabelPosition=bottom;verticalAlign=top;html=1;outlineConnect=0;fillColor=#d80073;fontColor=#ffffff;strokeColor=#A50040;" parent="1" vertex="1">
          <mxGeometry x="345" y="430" width="30" height="60" as="geometry" />
        </mxCell>
        <mxCell id="YEmN3JBZFu8G2gOKy_cn-12" value="" style="edgeStyle=orthogonalEdgeStyle;rounded=0;orthogonalLoop=1;jettySize=auto;html=1;" parent="1" source="YEmN3JBZFu8G2gOKy_cn-5" target="YEmN3JBZFu8G2gOKy_cn-11" edge="1">
          <mxGeometry relative="1" as="geometry" />
        </mxCell>
        <mxCell id="YEmN3JBZFu8G2gOKy_cn-24" value="" style="edgeStyle=orthogonalEdgeStyle;rounded=0;orthogonalLoop=1;jettySize=auto;html=1;entryX=0;entryY=0.5;entryDx=0;entryDy=0;" parent="1" source="RvM-3XKKw1xcJl6oH_7m-1" target="YEmN3JBZFu8G2gOKy_cn-11" edge="1">
          <mxGeometry relative="1" as="geometry">
            <mxPoint x="560" y="490" as="targetPoint" />
            <Array as="points">
              <mxPoint x="560" y="480" />
              <mxPoint x="640" y="480" />
              <mxPoint x="640" y="370" />
            </Array>
          </mxGeometry>
        </mxCell>
        <mxCell id="RvM-3XKKw1xcJl6oH_7m-3" value="" style="edgeStyle=orthogonalEdgeStyle;rounded=0;orthogonalLoop=1;jettySize=auto;html=1;" edge="1" parent="1" source="YEmN3JBZFu8G2gOKy_cn-5" target="RvM-3XKKw1xcJl6oH_7m-1">
          <mxGeometry relative="1" as="geometry" />
        </mxCell>
        <mxCell id="RvM-3XKKw1xcJl6oH_7m-7" value="" style="edgeStyle=orthogonalEdgeStyle;rounded=0;orthogonalLoop=1;jettySize=auto;html=1;" edge="1" parent="1" source="YEmN3JBZFu8G2gOKy_cn-5" target="RvM-3XKKw1xcJl6oH_7m-1">
          <mxGeometry relative="1" as="geometry" />
        </mxCell>
        <mxCell id="YEmN3JBZFu8G2gOKy_cn-5" value="New Mail?" style="rhombus;whiteSpace=wrap;html=1;fillColor=#f8cecc;strokeColor=#b85450;" parent="1" vertex="1">
          <mxGeometry x="520" y="330" width="80" height="80" as="geometry" />
        </mxCell>
        <mxCell id="YEmN3JBZFu8G2gOKy_cn-9" value="Create Task" style="text;html=1;align=center;verticalAlign=middle;whiteSpace=wrap;rounded=0;fillColor=#dae8fc;strokeColor=#6c8ebf;" parent="1" vertex="1">
          <mxGeometry x="600" y="330" width="70" height="30" as="geometry" />
        </mxCell>
        <mxCell id="YEmN3JBZFu8G2gOKy_cn-10" value="Send Mail to Developer and Also include tracker email" style="text;html=1;align=center;verticalAlign=middle;whiteSpace=wrap;rounded=0;fillColor=#dae8fc;strokeColor=#6c8ebf;" parent="1" vertex="1">
          <mxGeometry x="230" y="330" width="120" height="50" as="geometry" />
        </mxCell>
        <mxCell id="YEmN3JBZFu8G2gOKy_cn-11" value="Backend Server" style="rounded=0;whiteSpace=wrap;html=1;fillColor=#ffff88;strokeColor=#36393d;" parent="1" vertex="1">
          <mxGeometry x="700" y="340" width="120" height="60" as="geometry" />
        </mxCell>
        <mxCell id="RvM-3XKKw1xcJl6oH_7m-9" style="edgeStyle=orthogonalEdgeStyle;rounded=0;orthogonalLoop=1;jettySize=auto;html=1;entryX=-0.015;entryY=0.554;entryDx=0;entryDy=0;entryPerimeter=0;" edge="1" parent="1" source="YEmN3JBZFu8G2gOKy_cn-43" target="RvM-3XKKw1xcJl6oH_7m-10">
          <mxGeometry relative="1" as="geometry">
            <Array as="points">
              <mxPoint x="760" y="440" />
              <mxPoint x="870" y="440" />
              <mxPoint x="870" y="522" />
            </Array>
          </mxGeometry>
        </mxCell>
        <mxCell id="YEmN3JBZFu8G2gOKy_cn-15" value="" style="strokeWidth=2;html=1;shape=mxgraph.flowchart.database;whiteSpace=wrap;fillColor=#76608a;fontColor=#ffffff;strokeColor=#432D57;" parent="1" vertex="1">
          <mxGeometry x="730" y="490" width="60" height="60" as="geometry" />
        </mxCell>
        <mxCell id="YEmN3JBZFu8G2gOKy_cn-16" value="Database" style="text;html=1;align=center;verticalAlign=middle;whiteSpace=wrap;rounded=0;" parent="1" vertex="1">
          <mxGeometry x="730" y="560" width="60" height="30" as="geometry" />
        </mxCell>
        <mxCell id="YEmN3JBZFu8G2gOKy_cn-17" value="" style="endArrow=classic;startArrow=classic;html=1;rounded=0;entryX=0.5;entryY=1;entryDx=0;entryDy=0;exitX=0.5;exitY=0;exitDx=0;exitDy=0;exitPerimeter=0;" parent="1" source="YEmN3JBZFu8G2gOKy_cn-15" target="YEmN3JBZFu8G2gOKy_cn-11" edge="1">
          <mxGeometry width="50" height="50" relative="1" as="geometry">
            <mxPoint x="680" y="450" as="sourcePoint" />
            <mxPoint x="890" y="625" as="targetPoint" />
            <Array as="points" />
          </mxGeometry>
        </mxCell>
        <mxCell id="YEmN3JBZFu8G2gOKy_cn-18" value="Frontend" style="sketch=0;aspect=fixed;pointerEvents=1;shadow=0;dashed=0;html=1;strokeColor=none;labelPosition=center;verticalLabelPosition=bottom;verticalAlign=top;align=center;fillColor=#00188D;shape=mxgraph.azure.laptop" parent="1" vertex="1">
          <mxGeometry x="990" y="180" width="133.33" height="80" as="geometry" />
        </mxCell>
        <mxCell id="YEmN3JBZFu8G2gOKy_cn-21" value="" style="endArrow=classic;startArrow=classic;html=1;rounded=0;entryX=0;entryY=0.5;entryDx=0;entryDy=0;exitX=1;exitY=0.5;exitDx=0;exitDy=0;" parent="1" source="YEmN3JBZFu8G2gOKy_cn-11" target="YEmN3JBZFu8G2gOKy_cn-35" edge="1">
          <mxGeometry width="50" height="50" relative="1" as="geometry">
            <mxPoint x="760" y="339" as="sourcePoint" />
            <mxPoint x="750" y="280" as="targetPoint" />
            <Array as="points">
              <mxPoint x="850" y="370" />
            </Array>
          </mxGeometry>
        </mxCell>
        <mxCell id="YEmN3JBZFu8G2gOKy_cn-22" value="Update Task&lt;div&gt;&lt;br&gt;&lt;/div&gt;" style="text;html=1;align=center;verticalAlign=middle;whiteSpace=wrap;rounded=0;fillColor=#dae8fc;strokeColor=#6c8ebf;" parent="1" vertex="1">
          <mxGeometry x="566" y="490" width="56" height="50" as="geometry" />
        </mxCell>
        <mxCell id="YEmN3JBZFu8G2gOKy_cn-31" style="edgeStyle=orthogonalEdgeStyle;rounded=0;orthogonalLoop=1;jettySize=auto;html=1;entryX=1;entryY=0.5;entryDx=0;entryDy=0;" parent="1" source="YEmN3JBZFu8G2gOKy_cn-29" target="YEmN3JBZFu8G2gOKy_cn-30" edge="1">
          <mxGeometry relative="1" as="geometry" />
        </mxCell>
        <mxCell id="YEmN3JBZFu8G2gOKy_cn-29" value="" style="image;aspect=fixed;html=1;points=[];align=center;fontSize=12;image=img/lib/azure2/general/Scheduler.svg;" parent="1" vertex="1">
          <mxGeometry x="610" y="214" width="68" height="68" as="geometry" />
        </mxCell>
        <mxCell id="YEmN3JBZFu8G2gOKy_cn-30" value="Mail Sender" style="rounded=0;whiteSpace=wrap;html=1;fillColor=#f8cecc;strokeColor=#b85450;gradientColor=#ea6b66;" parent="1" vertex="1">
          <mxGeometry x="437.5" y="231" width="85" height="34" as="geometry" />
        </mxCell>
        <mxCell id="YEmN3JBZFu8G2gOKy_cn-32" value="" style="endArrow=classic;startArrow=classic;html=1;rounded=0;entryX=0.5;entryY=0;entryDx=0;entryDy=0;" parent="1" target="YEmN3JBZFu8G2gOKy_cn-11" edge="1">
          <mxGeometry width="50" height="50" relative="1" as="geometry">
            <mxPoint x="679" y="248" as="sourcePoint" />
            <mxPoint x="770" y="150" as="targetPoint" />
            <Array as="points">
              <mxPoint x="760" y="248" />
            </Array>
          </mxGeometry>
        </mxCell>
        <mxCell id="YEmN3JBZFu8G2gOKy_cn-34" style="edgeStyle=orthogonalEdgeStyle;rounded=0;orthogonalLoop=1;jettySize=auto;html=1;entryX=1;entryY=0.3333333333333333;entryDx=0;entryDy=0;entryPerimeter=0;exitX=0.5;exitY=1;exitDx=0;exitDy=0;" parent="1" source="YEmN3JBZFu8G2gOKy_cn-30" target="YEmN3JBZFu8G2gOKy_cn-2" edge="1">
          <mxGeometry relative="1" as="geometry" />
        </mxCell>
        <mxCell id="YEmN3JBZFu8G2gOKy_cn-35" value="Frontend Server" style="rounded=0;whiteSpace=wrap;html=1;fillColor=#b0e3e6;strokeColor=#0e8088;" parent="1" vertex="1">
          <mxGeometry x="900" y="340" width="120" height="60" as="geometry" />
        </mxCell>
        <mxCell id="YEmN3JBZFu8G2gOKy_cn-38" style="edgeStyle=orthogonalEdgeStyle;rounded=0;orthogonalLoop=1;jettySize=auto;html=1;entryX=0;entryY=0.438;entryDx=0;entryDy=0;entryPerimeter=0;" parent="1" source="YEmN3JBZFu8G2gOKy_cn-35" target="YEmN3JBZFu8G2gOKy_cn-18" edge="1">
          <mxGeometry relative="1" as="geometry" />
        </mxCell>
        <mxCell id="YEmN3JBZFu8G2gOKy_cn-39" value="" style="image;aspect=fixed;perimeter=ellipsePerimeter;html=1;align=center;shadow=0;dashed=0;spacingTop=3;image=img/lib/active_directory/web_server.svg;" parent="1" vertex="1">
          <mxGeometry x="770" y="270" width="56" height="70" as="geometry" />
        </mxCell>
        <mxCell id="YEmN3JBZFu8G2gOKy_cn-40" value="" style="image;aspect=fixed;perimeter=ellipsePerimeter;html=1;align=center;shadow=0;dashed=0;spacingTop=3;image=img/lib/active_directory/database_server.svg;" parent="1" vertex="1">
          <mxGeometry x="800" y="495" width="45.1" height="55" as="geometry" />
        </mxCell>
        <mxCell id="YEmN3JBZFu8G2gOKy_cn-47" value="" style="image;aspect=fixed;perimeter=ellipsePerimeter;html=1;align=center;shadow=0;dashed=0;spacingTop=3;image=img/lib/active_directory/web_server.svg;" parent="1" vertex="1">
          <mxGeometry x="993.5" y="300" width="48" height="60" as="geometry" />
        </mxCell>
        <mxCell id="RvM-3XKKw1xcJl6oH_7m-1" value="NO" style="text;html=1;align=center;verticalAlign=middle;resizable=0;points=[];autosize=1;strokeColor=#6c8ebf;fillColor=#dae8fc;" vertex="1" parent="1">
          <mxGeometry x="540" y="430" width="40" height="30" as="geometry" />
        </mxCell>
        <mxCell id="RvM-3XKKw1xcJl6oH_7m-4" style="edgeStyle=orthogonalEdgeStyle;rounded=0;orthogonalLoop=1;jettySize=auto;html=1;entryX=0.5;entryY=1;entryDx=0;entryDy=0;" edge="1" parent="1" source="YEmN3JBZFu8G2gOKy_cn-2" target="YEmN3JBZFu8G2gOKy_cn-1">
          <mxGeometry relative="1" as="geometry" />
        </mxCell>
        <mxCell id="RvM-3XKKw1xcJl6oH_7m-5" value="&lt;font style=&quot;font-size: 12px;&quot;&gt;Sending &lt;br&gt;Reminders&lt;/font&gt;" style="text;html=1;align=center;verticalAlign=middle;resizable=0;points=[];autosize=1;strokeColor=#6c8ebf;fillColor=#dae8fc;" vertex="1" parent="1">
          <mxGeometry x="400" y="460" width="80" height="40" as="geometry" />
        </mxCell>
        <mxCell id="RvM-3XKKw1xcJl6oH_7m-6" value="" style="html=1;verticalLabelPosition=bottom;align=center;labelBackgroundColor=#ffffff;verticalAlign=top;strokeWidth=2;strokeColor=#0080F0;shadow=0;dashed=0;shape=mxgraph.ios7.icons.mail;" vertex="1" parent="1">
          <mxGeometry x="414" y="430" width="30" height="16.5" as="geometry" />
        </mxCell>
        <mxCell id="RvM-3XKKw1xcJl6oH_7m-10" value="" style="rounded=0;whiteSpace=wrap;html=1;fillColor=#d5e8d4;strokeColor=#82b366;gradientColor=#97d077;" vertex="1" parent="1">
          <mxGeometry x="910" y="450" width="130" height="130" as="geometry" />
        </mxCell>
        <mxCell id="RvM-3XKKw1xcJl6oH_7m-8" value="" style="verticalLabelPosition=bottom;sketch=0;aspect=fixed;html=1;verticalAlign=top;strokeColor=#82b366;align=center;outlineConnect=0;shape=mxgraph.citrix.file_server;fillColor=#d5e8d4;" vertex="1" parent="1">
          <mxGeometry x="924.5" y="460" width="71" height="97" as="geometry" />
        </mxCell>
        <mxCell id="RvM-3XKKw1xcJl6oH_7m-12" value="Email Service" style="text;html=1;align=center;verticalAlign=middle;resizable=0;points=[];autosize=1;strokeColor=#d6b656;fillColor=#fff2cc;" vertex="1" parent="1">
          <mxGeometry x="300" y="168" width="100" height="30" as="geometry" />
        </mxCell>
        <mxCell id="RvM-3XKKw1xcJl6oH_7m-13" value="UI Service" style="text;html=1;align=center;verticalAlign=middle;resizable=0;points=[];autosize=1;strokeColor=#d6b656;fillColor=#fff2cc;" vertex="1" parent="1">
          <mxGeometry x="1050" y="360" width="80" height="30" as="geometry" />
        </mxCell>
        <mxCell id="RvM-3XKKw1xcJl6oH_7m-14" value="FTP Service" style="text;html=1;align=center;verticalAlign=middle;resizable=0;points=[];autosize=1;strokeColor=#d6b656;fillColor=#fff2cc;" vertex="1" parent="1">
          <mxGeometry x="925" y="588" width="90" height="30" as="geometry" />
        </mxCell>
        <mxCell id="RvM-3XKKw1xcJl6oH_7m-15" value="Backend Service" style="text;html=1;align=center;verticalAlign=middle;resizable=0;points=[];autosize=1;strokeColor=#d6b656;fillColor=#fff2cc;" vertex="1" parent="1">
          <mxGeometry x="780" y="240" width="110" height="30" as="geometry" />
        </mxCell>
      </root>
    </mxGraphModel>
  </diagram>
</mxfile>
